# xmcd CD database file
#
# Track frame offsets:
#	150
#	17132
#	33468
#	47733
#	61993
#	79486
#	92556
#	104237
#	120198
#	137530
#	155225
#
# Disc length: 2320 seconds
#
# Revision: 0
# Processed by: cddbd v1.5.1PL0 Copyright (c) Steve Scherf et al.
# Submitted via: CDex 1.51
#
DISCID=92090e0b
DTITLE=Costumbre - Fantasia
DYEAR=2005
DGENRE=Country
TTITLE0=Que importa
TTITLE1=Quiero saber
TTITLE2=La solucion
TTITLE3=Estar enamorado
TTITLE4=Piel a piel
TTITLE5=Si me trataras de olvidar
TTITLE6=Fantasia
TTITLE7=Recordar
TTITLE8=Cuando estas conmigo
TTITLE9=Seguire queriendote
TTITLE10=Como nadie
EXTD=YEAR: 2005
EXTT0=
EXTT1=
EXTT2=
EXTT3=
EXTT4=
EXTT5=
EXTT6=
EXTT7=
EXTT8=
EXTT9=
EXTT10=
PLAYORDER=
